<?xml version="1.0" encoding="utf-8"?>
<!-- Generator: Adobe Illustrator 16.0.0, SVG Export Plug-In . SVG Version: 6.00 Build 0)  -->
<!DOCTYPE svg PUBLIC "-//W3C//DTD SVG 1.1//EN" "http://www.w3.org/Graphics/SVG/1.1/DTD/svg11.dtd">
<svg version="1.1" id="Layer_1" xmlns="http://www.w3.org/2000/svg" xmlns:xlink="http://www.w3.org/1999/xlink" x="0px" y="0px"
	 width="500px" height="90px" viewBox="0 0 500 90" enable-background="new 0 0 500 90" xml:space="preserve">
<g>
	<g>
		<path fill-rule="evenodd" clip-rule="evenodd" fill="#000001" d="M192.932,89.359c-2.52,0-4.735-0.373-6.658-1.104
			c-1.924-0.733-3.542-1.772-4.854-3.117c-1.311-1.346-2.316-2.964-2.996-4.87c-0.682-1.906-1.022-4.035-1.022-6.385V46.5h-4.496
			c-0.815,0-1.515-0.272-2.094-0.799c-0.58-0.528-0.869-1.294-0.869-2.316v-6.182l8.43-1.636l3.116-12.923
			c0.409-1.635,1.566-2.451,3.473-2.451h8.276V35.67h13.128V46.5h-13.128v26.309c0,1.227,0.307,2.231,0.902,3.029
			c0.596,0.802,1.447,1.212,2.571,1.212c0.579,0,1.073-0.069,1.466-0.188c0.39-0.119,0.731-0.256,1.021-0.41
			c0.289-0.15,0.562-0.288,0.818-0.406c0.255-0.12,0.544-0.173,0.884-0.173c0.478,0,0.869,0.104,1.159,0.325
			c0.29,0.222,0.578,0.579,0.885,1.056l4.802,7.511c-2.043,1.531-4.341,2.671-6.897,3.439
			C198.296,88.969,195.656,89.359,192.932,89.359z"/>
		<path fill-rule="evenodd" clip-rule="evenodd" fill="#000001" d="M229.306,43.742c1.634-2.86,3.524-5.108,5.652-6.743
			c2.128-1.635,4.564-2.452,7.323-2.452c2.385,0,4.325,0.562,5.823,1.687l-1.021,11.647c-0.171,0.748-0.443,1.26-0.835,1.531
			c-0.392,0.273-0.938,0.41-1.618,0.41c-0.271,0-0.63-0.018-1.073-0.052c-0.443-0.034-0.903-0.085-1.379-0.138
			c-0.476-0.051-0.954-0.101-1.447-0.151c-0.494-0.052-0.953-0.069-1.363-0.069c-2.316,0-4.154,0.614-5.534,1.838
			c-1.378,1.228-2.554,2.929-3.507,5.111v32.182H214.49V35.567h9.399c0.784,0,1.447,0.068,1.976,0.206
			c0.526,0.136,0.97,0.339,1.328,0.628c0.357,0.291,0.63,0.684,0.816,1.159c0.188,0.477,0.343,1.056,0.478,1.736L229.306,43.742z"/>
		<path fill-rule="evenodd" clip-rule="evenodd" fill="#000001" d="M270.514,35.567v52.976h-15.835V35.567H270.514L270.514,35.567z
			 M272.149,21.06c0,1.261-0.257,2.436-0.767,3.543c-0.511,1.107-1.208,2.076-2.095,2.911c-0.886,0.835-1.907,1.5-3.082,1.994
			s-2.436,0.748-3.763,0.748c-1.295,0-2.505-0.254-3.627-0.748c-1.124-0.494-2.112-1.158-2.982-1.994
			c-0.867-0.835-1.547-1.804-2.042-2.911c-0.493-1.107-0.749-2.282-0.749-3.543c0-1.293,0.256-2.503,0.749-3.628
			c0.495-1.124,1.175-2.111,2.042-2.963c0.87-0.851,1.858-1.513,2.982-1.99c1.122-0.478,2.332-0.714,3.627-0.714
			c1.327,0,2.588,0.236,3.763,0.714c1.175,0.477,2.196,1.139,3.082,1.99c0.887,0.852,1.584,1.839,2.095,2.963
			C271.893,18.557,272.149,19.767,272.149,21.06z"/>
		<path fill-rule="evenodd" clip-rule="evenodd" fill="#000001" d="M285.105,88.543V46.449l-3.475-0.714
			c-1.189-0.271-2.144-0.697-2.876-1.279c-0.73-0.576-1.107-1.428-1.107-2.552V35.67h7.458v-3.014c0-3.029,0.494-5.773,1.466-8.225
			c0.97-2.45,2.366-4.544,4.188-6.282s4.036-3.082,6.658-4.038c2.622-0.952,5.602-1.429,8.939-1.429c1.294,0,2.486,0.07,3.576,0.222
			c1.09,0.153,2.232,0.409,3.423,0.749l-0.308,7.713c-0.033,0.546-0.169,0.988-0.408,1.347c-0.238,0.357-0.544,0.647-0.937,0.87
			c-0.392,0.219-0.817,0.388-1.26,0.492c-0.443,0.102-0.885,0.154-1.328,0.154c-1.396,0-2.64,0.135-3.729,0.408
			c-1.091,0.273-1.992,0.748-2.726,1.449c-0.731,0.696-1.294,1.615-1.669,2.755c-0.375,1.142-0.562,2.59-0.562,4.326v2.503h12.414
			V46.5h-11.902v42.043H285.105z"/>
		<path fill-rule="evenodd" clip-rule="evenodd" fill="#000001" d="M350.017,55.696c0-1.259-0.152-2.485-0.478-3.68
			c-0.324-1.19-0.849-2.263-1.582-3.198c-0.732-0.938-1.701-1.687-2.895-2.266c-1.193-0.578-2.64-0.869-4.343-0.869
			c-2.996,0-5.349,0.851-7.049,2.571c-1.703,1.719-2.828,4.207-3.373,7.441H350.017L350.017,55.696z M330.095,64.892
			c0.511,4.425,1.855,7.629,4.034,9.619c2.181,1.995,4.991,3,8.43,3c1.842,0,3.425-0.224,4.752-0.665
			c1.328-0.444,2.519-0.938,3.557-1.482c1.039-0.545,1.994-1.039,2.862-1.48c0.869-0.444,1.771-0.665,2.725-0.665
			c1.26,0,2.216,0.459,2.86,1.379l4.598,5.671c-1.635,1.874-3.389,3.389-5.278,4.566c-1.891,1.173-3.831,2.094-5.822,2.757
			c-1.995,0.664-3.986,1.123-5.979,1.378c-1.992,0.257-3.898,0.391-5.706,0.391c-3.711,0-7.185-0.61-10.436-1.821
			c-3.254-1.208-6.095-2.996-8.533-5.38c-2.435-2.384-4.358-5.347-5.771-8.889c-1.415-3.543-2.129-7.663-2.129-12.363
			c0-3.54,0.611-6.896,1.821-10.062c1.21-3.17,2.945-5.943,5.212-8.325c2.265-2.388,5.005-4.277,8.226-5.672
			c3.217-1.396,6.843-2.096,10.896-2.096c3.508,0,6.727,0.548,9.638,1.635c2.911,1.09,5.416,2.674,7.512,4.752
			c2.093,2.077,3.729,4.614,4.903,7.627c1.174,3.015,1.754,6.438,1.754,10.251c0,1.192-0.052,2.164-0.153,2.913
			c-0.104,0.748-0.29,1.344-0.562,1.787c-0.273,0.442-0.632,0.751-1.09,0.921c-0.46,0.169-1.059,0.255-1.772,0.255H330.095z"/>
		<path fill-rule="evenodd" clip-rule="evenodd" fill="#000001" d="M409.36,48.137c-0.479,0.579-0.937,1.038-1.379,1.379
			c-0.444,0.34-1.073,0.511-1.89,0.511c-0.786,0-1.483-0.189-2.114-0.562c-0.628-0.376-1.344-0.801-2.127-1.259
			c-0.785-0.463-1.705-0.869-2.76-1.245c-1.056-0.376-2.367-0.562-3.933-0.562c-1.942,0-3.611,0.358-5.025,1.072
			c-1.411,0.716-2.586,1.738-3.507,3.065c-0.918,1.327-1.602,2.946-2.043,4.87c-0.442,1.925-0.663,4.104-0.663,6.522
			c0,5.074,0.986,8.974,2.946,11.697c1.958,2.726,4.649,4.086,8.087,4.086c1.84,0,3.302-0.235,4.377-0.696
			c1.072-0.46,1.975-0.97,2.725-1.532c0.75-0.562,1.445-1.073,2.077-1.55c0.63-0.478,1.412-0.716,2.366-0.716
			c1.26,0,2.214,0.459,2.862,1.379l4.596,5.671c-1.633,1.874-3.354,3.389-5.157,4.566c-1.807,1.173-3.646,2.094-5.536,2.757
			c-1.891,0.664-3.797,1.123-5.704,1.378c-1.907,0.257-3.764,0.391-5.567,0.391c-3.235,0-6.317-0.61-9.264-1.838
			c-2.945-1.226-5.535-3.013-7.765-5.348c-2.23-2.332-4.003-5.193-5.313-8.597c-1.312-3.407-1.975-7.289-1.975-11.648
			c0-3.813,0.577-7.391,1.719-10.713c1.142-3.317,2.827-6.197,5.06-8.631c2.228-2.437,4.987-4.344,8.274-5.738
			c3.286-1.396,7.083-2.096,11.409-2.096c4.152,0,7.799,0.665,10.932,1.993c3.133,1.327,5.959,3.269,8.479,5.822L409.36,48.137z"/>
		<path fill-rule="evenodd" clip-rule="evenodd" fill="#000001" d="M438.237,89.359c-2.519,0-4.731-0.373-6.657-1.104
			c-1.924-0.733-3.542-1.772-4.853-3.117c-1.312-1.346-2.317-2.964-2.997-4.87c-0.683-1.906-1.022-4.035-1.022-6.385V46.5h-4.495
			c-0.815,0-1.516-0.272-2.095-0.799c-0.579-0.528-0.869-1.294-0.869-2.316v-6.182l8.43-1.636l3.117-12.923
			c0.407-1.635,1.567-2.451,3.474-2.451h8.275V35.67h13.129V46.5h-13.129v26.309c0,1.227,0.307,2.231,0.902,3.029
			c0.597,0.802,1.446,1.212,2.571,1.212c0.58,0,1.071-0.069,1.465-0.188c0.392-0.119,0.731-0.256,1.021-0.41
			c0.289-0.15,0.562-0.288,0.816-0.406c0.256-0.12,0.545-0.173,0.887-0.173c0.475,0,0.869,0.104,1.158,0.325
			c0.29,0.222,0.578,0.579,0.884,1.056l4.802,7.511c-2.043,1.531-4.341,2.671-6.896,3.439
			C443.604,88.969,440.962,89.359,438.237,89.359z"/>
		<path fill-rule="evenodd" clip-rule="evenodd" fill="#000001" d="M484.572,66.984c-3.171,0.139-5.774,0.409-7.818,0.819
			c-2.043,0.409-3.659,0.921-4.852,1.53c-1.191,0.615-2.009,1.312-2.469,2.098c-0.461,0.782-0.698,1.634-0.698,2.552
			c0,1.806,0.492,3.066,1.48,3.799c0.989,0.732,2.435,1.105,4.344,1.105c2.041,0,3.829-0.356,5.362-1.071
			c1.534-0.717,3.081-1.875,4.65-3.474V66.984L484.572,66.984z M456.065,42.925c3.202-2.829,6.761-4.939,10.661-6.315
			c3.898-1.381,8.072-2.062,12.531-2.062c3.201,0,6.098,0.51,8.667,1.549c2.572,1.039,4.753,2.485,6.54,4.342
			c1.787,1.855,3.15,4.071,4.104,6.625c0.953,2.555,1.432,5.347,1.432,8.378v33.103h-7.256c-1.499,0-2.622-0.204-3.389-0.612
			c-0.765-0.409-1.413-1.262-1.923-2.556l-1.126-2.911c-1.328,1.124-2.604,2.112-3.831,2.964c-1.225,0.853-2.485,1.566-3.797,2.163
			c-1.312,0.596-2.708,1.037-4.188,1.327c-1.483,0.289-3.134,0.441-4.938,0.441c-2.417,0-4.614-0.32-6.59-0.952
			c-1.977-0.629-3.644-1.548-5.023-2.775c-1.379-1.226-2.452-2.761-3.2-4.581c-0.75-1.822-1.124-3.916-1.124-6.302
			c0-1.905,0.476-3.847,1.431-5.805c0.952-1.96,2.604-3.746,4.954-5.363c2.351-1.621,5.518-2.963,9.501-4.053
			c3.984-1.091,9.01-1.704,15.072-1.839V55.44c0-3.1-0.631-5.346-1.909-6.725c-1.277-1.38-3.099-2.063-5.448-2.063
			c-1.876,0-3.406,0.207-4.599,0.615c-1.191,0.406-2.247,0.869-3.183,1.379c-0.937,0.511-1.857,0.971-2.742,1.38
			c-0.886,0.409-1.94,0.61-3.167,0.61c-1.09,0-2.009-0.269-2.76-0.814c-0.749-0.546-1.359-1.193-1.838-1.941L456.065,42.925z"/>
	</g>
	<g>
		<path fill-rule="evenodd" clip-rule="evenodd" fill="#80C342" d="M162.699,66.328l-32.038-54.619l-0.008-0.007
			c-2.506-4.365-5.415-7.373-8.452-9.02c-1.876-1.022-3.808-1.523-5.716-1.504c-1.903,0.021-3.811,0.56-5.651,1.616
			c-2.911,1.669-5.65,4.63-7.959,8.883l-0.019,0.032L84.577,42.868l13.041,22.23c2.887,4.565,4.237,8.882,4.204,12.676
			c-0.021,2.388-0.589,4.575-1.66,6.479c-1.074,1.909-2.648,3.539-4.688,4.826c-0.509,0.322-1.045,0.623-1.613,0.9h54.937
			l0.01,0.004c5.287,0.047,9.507-1.007,12.51-2.905c1.695-1.068,2.999-2.414,3.88-3.979c0.88-1.569,1.343-3.365,1.361-5.342
			c0.032-3.35-1.204-7.227-3.839-11.397L162.699,66.328z"/>
		<path fill-rule="evenodd" clip-rule="evenodd" fill="#ABD037" d="M98.129,11.115l1.169,1.993L83.207,40.536l-16.09-27.428
			l1.169-1.993C76.336-3.705,89.622-3.705,98.129,11.115z"/>
		<path fill-rule="evenodd" clip-rule="evenodd" fill="#009047" d="M95.6,66.323L63.559,11.709l-0.009-0.007
			c-2.505-4.365-5.414-7.373-8.452-9.021c-1.875-1.02-3.806-1.521-5.715-1.502c-1.903,0.018-3.81,0.554-5.651,1.616
			c-2.911,1.668-5.649,4.63-7.958,8.883l-0.02,0.032L3.714,66.323L3.71,66.334c-2.628,4.387-3.814,8.426-3.703,11.873
			c0.062,1.999,0.567,3.802,1.477,5.353c0.909,1.547,2.24,2.862,3.952,3.89c2.955,1.771,7.05,2.697,12.142,2.532l0.037-0.002h64.079
			l0.01,0.002c5.286,0.049,9.51-1.005,12.511-2.903c1.695-1.07,2.999-2.414,3.88-3.979c0.878-1.569,1.345-3.365,1.363-5.344
			c0.03-3.349-1.205-7.225-3.841-11.396L95.6,66.323z"/>
	</g>
</g>
</svg>
